<?xml version="1.0" encoding="utf-8"?>
<!-- Generator: Adobe Illustrator 21.0.2, SVG Export Plug-In . SVG Version: 6.00 Build 0)  -->
<svg version="1.1" id="Layer_1" xmlns="http://www.w3.org/2000/svg" xmlns:xlink="http://www.w3.org/1999/xlink" x="0px" y="0px"
	 viewBox="0 0 50 50" style="enable-background:new 0 0 50 50;" xml:space="preserve">
<style type="text/css">
	.st0{opacity:0.3;fill:#454546;}
	.st1{opacity:0.2;fill:#454546;}
	.st2{opacity:0.1;fill:#454546;}
	.st3{opacity:5.000000e-02;fill:#454546;}
	.st4{fill:#454546;}
	.st5{opacity:0.9;fill:#454546;}
	.st6{opacity:0.8;fill:#454546;}
	.st7{opacity:0.7;fill:#454546;}
	.st8{opacity:0.6;fill:#454546;}
	.st9{opacity:0.5;fill:#454546;}
	.st10{opacity:0.4;fill:#454546;}
</style>
<path class="st0" d="M19.5,16.9c-0.3,0-0.6-0.2-0.8-0.4l-6.3-11c-0.2-0.4-0.1-1,0.3-1.2c0.4-0.2,1-0.1,1.2,0.3l6.3,11
	c0.2,0.4,0.1,1-0.3,1.2C19.8,16.8,19.7,16.9,19.5,16.9z"/>
<path class="st1" d="M15.7,20.7c-0.2,0-0.3,0-0.4-0.1l-11-6.3C3.8,14,3.6,13.5,3.9,13c0.2-0.4,0.8-0.6,1.2-0.3l11,6.3
	c0.4,0.2,0.6,0.8,0.3,1.2C16.3,20.6,16,20.7,15.7,20.7z"/>
<path class="st2" d="M14.2,26H1.6c-0.5,0-0.9-0.4-0.9-0.9c0-0.5,0.4-0.9,0.9-0.9h12.7c0.5,0,0.9,0.4,0.9,0.9
	C15.1,25.6,14.7,26,14.2,26z"/>
<path class="st2" d="M4.7,37.6c-0.3,0-0.6-0.2-0.8-0.4c-0.2-0.4-0.1-1,0.3-1.2l11-6.3c0.4-0.2,1-0.1,1.2,0.3c0.2,0.4,0.1,1-0.3,1.2
	l-11,6.3C5,37.5,4.8,37.6,4.7,37.6z"/>
<path class="st3" d="M13.2,46.1c-0.2,0-0.3,0-0.4-0.1c-0.4-0.2-0.6-0.8-0.3-1.2l6.3-11c0.2-0.4,0.8-0.6,1.2-0.3
	c0.4,0.2,0.6,0.8,0.3,1.2l-6.3,11C13.8,45.9,13.5,46.1,13.2,46.1z"/>
<path class="st4" d="M24.7,49.2c-0.5,0-0.9-0.4-0.9-0.9V35.6c0-0.5,0.4-0.9,0.9-0.9c0.5,0,0.9,0.4,0.9,0.9v12.7
	C25.6,48.8,25.2,49.2,24.7,49.2z"/>
<path class="st5" d="M36.3,46.1c-0.3,0-0.6-0.2-0.8-0.4l-6.3-11c-0.2-0.4-0.1-1,0.3-1.2c0.4-0.2,1-0.1,1.2,0.3l6.3,11
	c0.2,0.4,0.1,1-0.3,1.2C36.6,46,36.5,46.1,36.3,46.1z"/>
<path class="st6" d="M44.8,37.6c-0.2,0-0.3,0-0.4-0.1l-11-6.3c-0.4-0.2-0.6-0.8-0.3-1.2c0.2-0.4,0.8-0.6,1.2-0.3l11,6.3
	c0.4,0.2,0.6,0.8,0.3,1.2C45.4,37.4,45.1,37.6,44.8,37.6z"/>
<path class="st7" d="M47.9,26H35.2c-0.5,0-0.9-0.4-0.9-0.9c0-0.5,0.4-0.9,0.9-0.9h12.7c0.5,0,0.9,0.4,0.9,0.9
	C48.8,25.6,48.4,26,47.9,26z"/>
<path class="st8" d="M33.8,20.7c-0.3,0-0.6-0.2-0.8-0.4c-0.2-0.4-0.1-1,0.3-1.2l11-6.3c0.4-0.2,1-0.1,1.2,0.3c0.2,0.4,0.1,1-0.3,1.2
	l-11,6.3C34.1,20.7,34,20.7,33.8,20.7z"/>
<path class="st9" d="M30,16.9c-0.2,0-0.3,0-0.4-0.1c-0.4-0.2-0.6-0.8-0.3-1.2l6.3-11c0.2-0.4,0.8-0.6,1.2-0.3
	c0.4,0.2,0.6,0.8,0.3,1.2l-6.3,11C30.6,16.7,30.3,16.9,30,16.9z"/>
<path class="st10" d="M24.7,15.5c-0.5,0-0.9-0.4-0.9-0.9V1.9c0-0.5,0.4-0.9,0.9-0.9c0.5,0,0.9,0.4,0.9,0.9v12.7
	C25.6,15.1,25.2,15.5,24.7,15.5z"/>
<path class="st4" d="M24.7,25.1"/>
</svg>
